<?xml version="1.0" standalone="no"?>
<!DOCTYPE svg PUBLIC "-//W3C//DTD SVG 20010904//EN"
 "http://www.w3.org/TR/2001/REC-SVG-20010904/DTD/svg10.dtd">
<svg version="1.0" xmlns="http://www.w3.org/2000/svg"
 width="512.000000pt" height="512.000000pt" viewBox="0 0 512.000000 512.000000"
 preserveAspectRatio="xMidYMid meet">
<metadata>
Created by potrace 1.11, written by Peter Selinger 2001-2013
</metadata>
<g transform="translate(0.000000,512.000000) scale(0.100000,-0.100000)"
fill="#000000" stroke="none">
<path d="M960 4985 c0 -124 -2 -135 -20 -145 -11 -6 -20 -17 -20 -25 0 -10
-10 -15 -31 -15 -35 0 -89 -49 -89 -81 0 -11 -18 -39 -40 -61 -22 -23 -40 -46
-40 -50 0 -4 -18 -8 -40 -8 l-40 0 0 -115 c0 -104 -2 -115 -20 -125 -11 -6
-20 -17 -20 -25 0 -10 -10 -15 -31 -15 -20 0 -40 -10 -60 -29 l-29 -29 0 -691
0 -691 -51 0 c-43 0 -55 -5 -80 -29 -28 -29 -29 -32 -29 -135 0 -95 -2 -106
-20 -116 -11 -6 -20 -17 -20 -25 0 -10 -10 -15 -31 -15 -20 0 -40 -10 -60 -29
-28 -29 -29 -32 -29 -131 0 -99 1 -102 29 -131 16 -16 39 -29 51 -29 28 0 80
-52 80 -80 0 -28 52 -80 80 -80 12 0 35 -13 51 -29 l29 -29 0 -211 0 -211 131
0 131 0 29 -29 c16 -16 29 -39 29 -51 0 -28 52 -80 80 -80 28 0 80 -52 80 -80
0 -12 13 -35 29 -51 l29 -29 211 0 211 0 0 -80 0 -80 -131 0 -131 0 -29 -29
-29 -29 0 -266 c0 -255 -1 -266 -20 -276 -11 -6 -20 -17 -20 -25 0 -10 -10
-15 -31 -15 -20 0 -40 -10 -60 -29 -24 -25 -29 -37 -29 -80 l0 -51 -36 0 c-27
0 -37 -5 -41 -20 -6 -23 -43 -28 -43 -5 0 8 -9 19 -20 25 -15 8 -20 21 -20 56
0 37 -6 51 -29 75 l-29 29 -371 0 -371 0 0 -240 0 -240 2560 0 2560 0 0 320 0
320 -480 0 -480 0 0 219 c0 210 1 219 20 224 11 3 20 12 20 21 0 11 9 16 31
16 20 0 40 10 60 29 24 25 29 37 29 80 l0 51 -80 0 -80 0 0 80 0 80 60 0 60 0
0 32 c0 27 20 51 148 180 129 130 151 148 180 148 l32 0 0 140 0 140 51 0 c43
0 55 5 80 29 l29 29 0 131 0 131 51 0 c43 0 55 5 80 29 28 29 29 32 29 131 0
99 -1 102 -29 131 -20 19 -40 29 -60 29 -21 0 -31 5 -31 15 0 8 -9 19 -20 25
-18 10 -20 21 -20 116 0 103 -1 106 -29 135 -20 19 -40 29 -60 29 -21 0 -31 5
-31 15 0 8 -9 19 -20 25 -20 10 -20 21 -20 516 l0 506 -29 29 c-20 19 -40 29
-60 29 -21 0 -31 5 -31 15 0 8 -9 19 -20 25 -19 10 -20 21 -20 196 l0 186 -29
29 c-20 19 -40 29 -60 29 -21 0 -31 5 -31 15 0 8 -9 19 -20 25 -14 8 -20 21
-20 45 0 32 -2 35 -30 35 -24 0 -43 12 -80 50 -29 28 -50 58 -50 70 0 33 -53
80 -89 80 -21 0 -31 5 -31 15 0 8 -9 19 -20 25 -16 9 -20 21 -20 65 l0 55
-1520 0 -1520 0 0 -135z m2140 -35 c58 -6 177 -14 265 -20 209 -13 380 -31
397 -41 11 -7 10 -11 -2 -19 -9 -6 -10 -10 -3 -10 6 0 14 4 18 10 3 5 12 7 20
4 22 -9 -4 -31 -32 -28 -13 1 -23 -2 -23 -7 0 -6 -4 -8 -8 -5 -11 7 -70 -23
-76 -39 -7 -20 29 -61 79 -90 68 -40 227 -106 265 -110 19 -2 34 -7 33 -12 0
-4 6 -15 15 -23 14 -13 15 -12 9 3 -7 18 1 22 18 9 19 -13 16 -40 -7 -56 -12
-9 -19 -16 -14 -16 5 0 4 -6 -2 -12 -11 -14 -10 -63 3 -91 11 -26 44 -40 100
-44 60 -3 159 -51 216 -102 33 -31 39 -44 45 -91 3 -30 17 -97 31 -149 30
-114 26 -149 -24 -194 -97 -87 -166 -154 -174 -168 -7 -13 7 -32 60 -86 102
-102 141 -195 141 -333 0 -52 -3 -62 -27 -85 -32 -29 -79 -33 -123 -10 -28 15
-98 99 -135 162 -19 32 -71 62 -115 65 -64 5 -230 -89 -230 -129 0 -17 56 -39
185 -73 143 -37 135 -35 160 -44 57 -22 105 -51 107 -65 0 -9 2 -23 3 -31 3
-29 -24 -66 -82 -111 -289 -224 -279 -220 -414 -137 -46 28 -100 59 -119 69
-40 21 -145 43 -160 34 -24 -15 -1 -65 86 -187 84 -118 77 -218 -17 -218 -53
0 -75 10 -201 91 -126 82 -218 129 -321 165 -40 15 -150 66 -245 116 -244 127
-271 128 -449 16 -53 -33 -161 -91 -242 -129 -188 -87 -265 -130 -383 -212
-152 -106 -208 -122 -232 -66 -12 28 -10 43 9 118 12 47 39 133 58 190 20 57
34 107 32 112 -14 22 -96 -15 -271 -122 -112 -68 -134 -78 -134 -59 0 6 -3 9
-7 8 -18 -5 -61 18 -147 75 -50 34 -92 65 -94 69 -2 5 -11 8 -20 8 -15 0 -15
2 -2 10 10 6 11 10 2 10 -16 0 -54 39 -48 49 3 5 -4 21 -15 35 -12 15 -15 25
-9 24 7 -2 15 3 18 11 3 8 0 11 -7 7 -6 -4 -11 -5 -11 -2 0 10 81 47 90 41 5
-3 11 -2 14 3 2 4 19 9 38 10 36 3 128 25 170 41 33 12 90 65 81 74 -3 4 -1 7
6 7 7 0 9 5 6 10 -3 6 -2 10 4 10 13 0 8 27 -10 48 -8 9 -16 22 -18 27 -6 16
-42 38 -70 42 -14 2 -57 5 -94 6 -59 3 -72 0 -93 -20 -13 -12 -24 -19 -24 -16
0 3 -7 0 -15 -7 -8 -7 -15 -10 -15 -6 0 3 -34 -28 -75 -69 -42 -42 -80 -73
-85 -70 -5 3 -12 0 -16 -6 -5 -8 -3 -9 6 -4 8 5 11 4 7 -3 -4 -5 -16 -8 -27
-5 -11 3 -17 10 -13 16 4 6 0 8 -10 4 -10 -3 -17 -2 -17 3 0 19 -2 25 -9 35
-5 6 -9 39 -10 75 -3 84 23 156 94 259 52 78 79 136 69 152 -3 5 1 9 8 10 10
0 10 2 1 6 -7 2 -13 9 -13 14 0 6 5 7 10 4 6 -3 10 3 10 15 0 13 -4 19 -12 14
-7 -4 -8 -3 -4 4 4 7 2 12 -5 12 -7 0 -4 7 7 15 16 13 16 14 1 9 -9 -3 -24 -1
-32 6 -8 6 -19 9 -25 5 -5 -3 -10 -1 -10 4 0 6 -3 11 -7 10 -23 -3 -53 16 -53
32 0 11 -7 22 -15 25 -11 4 -12 11 -6 23 7 11 4 22 -7 36 -16 18 -16 19 0 7
15 -12 17 -11 15 7 0 11 -4 18 -8 15 -4 -2 -10 0 -14 6 -3 6 4 11 17 11 15 1
17 3 7 6 -17 4 -16 36 3 60 6 7 4 14 -3 19 -8 5 -9 3 -4 -6 5 -9 4 -11 -4 -6
-6 4 -9 12 -5 17 3 5 9 7 14 4 12 -7 20 21 9 32 -5 5 -7 17 -3 27 5 14 9 14
23 4 15 -12 15 -11 0 7 -26 33 -32 46 -17 43 8 -2 13 7 12 24 0 24 2 25 20 16
18 -10 19 -9 9 3 -8 10 -9 20 -3 29 9 13 10 13 10 0 1 -13 2 -13 13 1 16 20
50 33 44 17 -2 -7 -9 -12 -14 -11 -5 1 -14 -7 -21 -18 -7 -11 -8 -19 -2 -19 5
0 10 4 10 9 0 5 9 11 20 14 11 3 20 1 20 -4 0 -5 -5 -9 -12 -9 -6 0 -3 -7 8
-16 10 -8 13 -12 6 -9 -9 5 -12 1 -10 -11 2 -10 -2 -19 -9 -19 -6 0 -15 -4
-20 -8 -4 -5 -1 -7 7 -5 12 2 15 -6 13 -39 -2 -29 2 -43 13 -47 12 -5 13 -10
3 -27 -8 -15 -8 -19 0 -15 6 4 11 3 11 -3 0 -5 -4 -12 -10 -16 -5 -3 -7 -12
-4 -20 4 -8 10 -12 15 -9 5 3 9 1 9 -3 0 -5 9 -9 20 -10 11 -1 18 2 15 7 -9
15 35 22 52 8 11 -8 14 -8 10 -1 -5 7 -1 12 10 12 31 -1 67 7 88 18 11 6 26 8
34 5 10 -3 12 0 8 11 -4 11 -1 15 12 12 14 -2 17 2 15 21 -1 16 3 24 13 24 13
0 13 -3 3 -15 -7 -8 -9 -15 -4 -15 13 0 36 16 35 24 -5 34 1 45 20 41 16 -3
18 -1 10 9 -15 17 -1 29 16 14 11 -9 13 -8 11 3 -2 9 4 13 15 11 9 -2 17 2 17
8 0 6 -5 8 -11 4 -7 -4 -10 -1 -7 7 3 8 12 13 20 13 9 -1 15 5 14 14 0 8 5 17
13 20 10 3 11 0 5 -9 -6 -11 -5 -12 8 -2 8 7 17 11 20 8 2 -3 5 2 5 10 0 10
-4 12 -10 6 -5 -5 -16 -7 -24 -4 -8 3 -21 -3 -29 -13 -9 -11 -13 -13 -9 -6 3
6 0 12 -7 13 -7 0 -1 5 15 11 16 6 24 14 20 21 -4 7 1 6 10 -2 12 -9 17 -10
17 -2 0 7 4 10 9 6 5 -3 12 -1 16 5 6 9 -7 14 -27 11 -13 -2 -9 6 9 20 14 12
16 12 8 0 -5 -10 -4 -12 4 -7 6 4 18 3 26 -4 10 -8 15 -8 21 1 4 7 3 9 -3 6
-5 -4 -19 2 -29 12 -11 9 -26 16 -34 13 -8 -2 -5 3 8 13 12 9 19 21 16 27 -4
5 4 4 17 -3 23 -12 23 -11 9 6 -9 11 -10 16 -2 11 6 -4 12 -2 12 3 0 6 6 10
13 8 7 -1 11 6 9 17 -2 12 1 16 9 10 8 -5 10 -3 5 5 -5 7 -15 10 -23 7 -8 -3
-11 -1 -8 4 3 6 14 10 23 10 15 1 15 2 2 13 -21 17 -22 47 -1 40 13 -3 12 -2
-2 7 -9 6 -15 17 -11 23 3 7 -2 3 -10 -7 -9 -11 -16 -17 -16 -14 0 10 -84 -13
-92 -25 -6 -9 -8 -9 -8 1 0 6 -5 12 -11 12 -5 0 -7 -6 -3 -12 4 -7 -2 -5 -13
5 -11 9 -25 17 -32 17 -7 0 -9 6 -6 13 4 6 0 4 -8 -5 -8 -10 -20 -18 -26 -18
-7 0 -10 -4 -7 -9 4 -5 -2 -8 -11 -6 -10 2 -22 4 -26 4 -5 1 -6 5 -3 10 3 5
-5 11 -19 13 -13 3 -22 1 -19 -3 3 -5 -2 -9 -10 -9 -8 0 -18 5 -21 10 -4 6
-13 7 -23 1 -22 -11 -42 -3 -42 17 0 13 2 13 13 -3 11 -14 16 -15 22 -5 5 9 4
11 -3 6 -7 -4 -12 -1 -12 8 0 8 -6 16 -12 19 -19 6 43 63 83 75 50 15 184 33
261 35 53 2 68 5 68 17 0 12 2 12 9 1 6 -9 11 -10 15 -2 4 6 12 11 17 11 6 0
7 -5 3 -12 -4 -6 -3 -8 4 -4 6 3 9 15 7 26 -3 13 1 17 11 13 7 -3 11 -10 7
-16 -3 -6 -1 -7 5 -3 9 5 9 13 1 28 -7 12 -7 18 -1 14 13 -8 43 4 37 14 -3 4
2 10 10 14 9 3 14 15 12 27 -3 17 -12 23 -33 25 -97 10 -121 15 -152 33 -13 7
-38 14 -55 16 -107 13 -132 19 -151 36 -11 11 -18 20 -15 20 2 1 24 3 49 4 25
1 77 6 115 10 39 4 99 7 135 7 36 0 133 -2 216 -3 84 -1 156 1 161 4 14 9 199
38 292 47 126 11 888 11 1011 0z m1024 -387 c11 -11 56 -11 56 0 0 6 7 2 15
-9 11 -14 14 -15 15 -4 0 13 1 13 10 0 6 -9 6 -18 0 -24 -14 -14 -50 -18 -50
-5 0 5 4 8 9 4 5 -3 13 0 17 6 5 8 3 9 -6 4 -9 -6 -11 -4 -5 6 7 11 5 11 -10
-1 -14 -11 -19 -12 -22 -2 -6 15 -23 6 -19 -11 1 -7 1 -9 -1 -4 -7 11 -31 8
-36 -5 -4 -10 -2 36 2 50 2 5 18 2 25 -5z m-3260 -1629 c3 -8 2 -12 -4 -9 -6
3 -10 10 -10 16 0 14 7 11 14 -7z m3833 -306 c-3 -7 -5 -2 -5 12 0 14 2 19 5
13 2 -7 2 -19 0 -25z m-617 -71 c0 -7 -4 -6 -10 3 -5 8 -10 10 -10 4 0 -6 8
-18 17 -25 9 -8 14 -9 10 -3 -4 7 2 14 14 17 16 4 18 3 8 -9 -9 -11 -7 -14 12
-15 17 -1 19 -3 6 -6 -10 -3 -14 -9 -10 -16 4 -7 8 -19 8 -27 0 -8 5 -14 11
-13 6 1 11 -4 11 -12 0 -7 -6 -11 -13 -8 -9 3 -11 -2 -7 -17 4 -16 8 -18 14
-8 7 10 9 9 9 -4 0 -9 -9 -20 -21 -23 -20 -7 -20 -7 -2 -22 10 -8 12 -12 6 -8
-16 8 -16 0 -2 -27 6 -12 7 -18 1 -14 -18 11 -21 -22 -4 -36 16 -12 16 -11 2
7 -14 19 -14 19 2 6 20 -15 15 -31 -8 -31 -8 0 -12 -5 -9 -11 4 -6 13 -8 20
-5 8 3 11 -2 8 -14 -5 -17 -7 -17 -20 -5 -17 18 -29 19 -39 3 -5 -7 -2 -9 8
-5 11 4 16 -1 16 -20 0 -17 -3 -21 -9 -12 -7 12 -10 12 -21 0 -7 -8 -8 -11 -2
-8 7 4 14 0 18 -8 3 -8 0 -14 -7 -12 -7 1 -12 -8 -12 -20 -1 -25 -25 -73 -37
-73 -4 0 -8 -5 -8 -11 0 -5 5 -7 10 -4 6 3 10 1 10 -5 0 -8 -10 -10 -27 -6
-16 3 -22 3 -15 0 6 -3 9 -11 6 -16 -4 -6 -2 -8 4 -4 6 3 14 2 17 -4 4 -6 3
-10 -2 -9 -22 4 -44 -2 -38 -11 3 -5 13 -6 22 -3 11 5 14 3 9 -6 -5 -7 -16
-11 -26 -8 -13 3 -17 0 -13 -9 3 -8 10 -11 16 -7 6 3 7 1 3 -6 -6 -9 -11 -9
-22 0 -12 10 -15 10 -12 -2 2 -8 7 -17 12 -20 5 -4 -2 -10 -14 -14 -15 -5 -25
-2 -31 6 -8 12 -13 6 -11 -12 1 -3 -9 -4 -21 -3 -12 1 -32 3 -45 3 -13 1 -20
6 -17 11 3 6 1 10 -6 10 -7 0 -9 3 -6 6 4 4 13 1 22 -6 13 -11 14 -10 9 4 -6
15 -18 20 -38 17 -5 -1 -6 5 -3 13 4 9 1 18 -4 22 -7 4 -7 10 -1 16 7 7 7 19
2 34 -5 13 -6 26 -1 28 5 3 6 16 4 29 -3 13 3 50 12 83 9 32 17 64 19 69 34
129 65 191 123 246 66 61 103 78 103 46z m-1265 -31 c249 -50 278 -63 314
-134 21 -42 18 -58 -16 -89 -12 -12 -23 -27 -23 -34 0 -6 -6 -9 -14 -6 -7 3
-25 -1 -40 -8 -15 -8 -56 -14 -98 -13 -40 0 -128 -5 -195 -11 -67 -6 -235 -11
-375 -11 -139 0 -264 -2 -278 -4 -14 -2 -45 -7 -69 -10 -24 -4 -62 -15 -84
-26 -44 -22 -72 -26 -62 -10 3 6 1 10 -6 10 -18 0 -3 56 28 98 52 71 108 124
163 152 48 24 226 87 340 119 66 19 264 8 415 -23z m1338 -31 c-3 -9 -8 -14
-10 -11 -3 3 -2 9 2 15 9 16 15 13 8 -4z m-2869 -312 c44 -151 66 -271 72
-394 3 -80 1 -96 -11 -96 -8 0 -15 9 -15 19 0 13 -4 17 -12 12 -8 -5 -8 -2 1
10 8 9 10 16 5 15 -21 -4 -30 3 -43 32 -10 23 -16 28 -22 18 -6 -10 -9 -11 -9
-1 0 6 -6 12 -14 12 -18 0 -62 70 -57 90 2 11 -2 10 -18 -4 -19 -17 -21 -17
-15 -3 5 13 2 16 -12 11 -15 -5 -16 -4 -4 4 8 6 17 9 21 6 4 -2 10 0 13 5 4 5
-2 8 -11 7 -22 -4 -63 14 -63 26 0 5 -5 6 -12 2 -7 -5 -8 -3 -4 5 6 10 12 9
24 -2 27 -23 42 -29 42 -18 0 6 -7 11 -15 11 -8 0 -15 4 -15 9 0 16 -32 22
-48 9 -10 -8 -13 -9 -9 -2 4 7 -1 15 -10 18 -12 5 -13 10 -5 18 8 8 8 15 1 24
-7 9 -6 21 6 41 15 26 15 23 -1 -24 -5 -17 -4 -17 9 0 9 11 18 14 21 8 4 -5
-1 -14 -10 -19 -11 -6 -13 -11 -5 -16 6 -4 11 -2 11 3 0 6 3 10 8 8 4 -1 8 2
9 7 1 5 7 12 13 16 7 4 13 22 15 39 2 30 1 31 -14 16 -20 -18 -31 -19 -31 -4
0 5 5 7 10 4 6 -3 10 1 10 9 0 14 11 20 32 17 7 -1 3 33 -7 48 -3 5 -1 12 4
15 5 4 13 1 17 -5 4 -8 3 -9 -4 -5 -7 4 -12 5 -12 2 0 -14 19 -14 31 1 8 9 9
14 3 10 -7 -4 -15 0 -18 9 -3 9 -11 12 -18 8 -7 -4 -9 -3 -5 1 10 12 38 15 31
4 -3 -5 1 -9 9 -9 8 0 17 7 21 15 3 8 2 14 -2 14 -35 -6 -36 25 -1 34 10 3 17
2 15 -1 -2 -4 6 -7 19 -7 22 0 22 1 8 17 -9 10 -21 15 -27 11 -6 -3 -5 0 3 8
10 11 15 11 18 2 7 -20 19 -15 20 7 1 11 -2 18 -7 15 -6 -3 -7 1 -3 11 9 25
26 -12 67 -153z m-139 97 c-3 -5 -12 -10 -18 -10 -7 0 -6 4 3 10 19 12 23 12
15 0z m-30 -119 c3 -5 2 -12 -3 -15 -5 -3 -9 1 -9 9 0 17 3 19 12 6z m-9 -76
c-4 -26 -23 -38 -30 -20 -3 9 -2 14 3 11 5 -3 11 1 15 9 7 19 15 19 12 0z
m-76 -19 c0 -3 -4 -8 -10 -11 -5 -3 -10 -1 -10 4 0 6 5 11 10 11 6 0 10 -2 10
-4z m-6 -44 c3 -5 -1 -9 -9 -9 -8 0 -12 4 -9 9 3 4 7 8 9 8 2 0 6 -4 9 -8z
m155 -165 c0 -9 -2 -8 -6 1 -2 6 -10 9 -15 6 -7 -4 -8 -2 -4 5 9 13 26 5 25
-12z m1472 -88 c18 -18 23 -34 23 -74 0 -82 -44 -128 -121 -127 -51 1 -57 2
-50 9 4 3 -3 11 -16 18 -12 6 -21 17 -19 24 1 7 -2 10 -7 6 -6 -3 -15 4 -21
15 -24 46 98 162 164 155 13 -2 34 -13 47 -26z m376 -682 c12 -8 12 -25 -1
-46 -7 -10 -5 -12 3 -6 16 10 -8 -34 -30 -55 -9 -8 -21 -26 -28 -38 -7 -13
-15 -21 -18 -18 -3 2 -14 -4 -26 -14 -11 -11 -24 -17 -29 -14 -4 3 -8 0 -8 -5
0 -6 -5 -11 -10 -11 -6 0 -22 -12 -35 -27 -36 -40 -41 -47 -43 -55 -1 -5 -5
-8 -9 -9 -5 0 -17 -9 -29 -20 -11 -10 -24 -16 -27 -12 -4 3 -7 2 -7 -4 0 -8
-47 -34 -70 -39 -10 -2 -45 -16 -61 -24 -9 -4 -21 -5 -28 -1 -7 5 -28 6 -47 4
-22 -2 -40 2 -50 12 -9 8 -21 15 -28 15 -8 0 -35 22 -62 49 -27 27 -55 56 -62
63 -7 7 -22 23 -34 35 -12 12 -24 20 -28 18 -3 -2 -13 6 -21 17 -8 12 -25 35
-39 52 -36 45 -50 72 -50 100 0 29 23 34 184 35 61 1 112 4 115 7 7 7 566 -2
578 -9z m1863 -692 c19 -23 24 -97 8 -118 -12 -16 -42 -18 -318 -22 -168 -3
-356 -10 -419 -16 -184 -17 -312 -6 -282 24 16 16 14 27 -5 27 -8 0 -12 -4 -9
-10 3 -5 1 -10 -4 -10 -13 0 -13 3 -5 24 3 8 12 12 21 9 11 -4 14 -2 9 5 -3 6
1 15 11 20 24 13 208 30 513 48 140 8 273 18 295 23 70 15 171 13 185 -4z
m-4574 -80 c12 -8 24 -11 28 -8 3 3 6 -4 6 -16 0 -12 4 -19 10 -16 5 3 7 0 4
-9 -3 -9 -12 -12 -21 -9 -10 4 -14 2 -10 -4 5 -8 -6 -11 -31 -9 -52 3 -62 12
-62 52 0 31 3 34 28 34 15 0 37 -7 48 -15z"/>
<path d="M736 4142 c-3 -5 1 -9 9 -9 8 0 12 4 9 9 -3 4 -7 8 -9 8 -2 0 -6 -4
-9 -8z"/>
<path d="M795 4110 c-4 -6 -11 -8 -16 -5 -16 10 -10 -2 9 -16 9 -7 14 -9 10
-5 -4 5 -3 15 3 23 6 7 9 13 6 13 -3 0 -9 -5 -12 -10z"/>
<path d="M1049 3973 c-12 -16 -12 -17 2 -6 9 7 20 9 24 5 5 -4 5 -1 1 6 -9 16
-11 15 -27 -5z"/>
<path d="M1103 3965 c0 -8 4 -12 9 -9 5 3 6 10 3 15 -9 13 -12 11 -12 -6z"/>
<path d="M4046 2135 c-3 -8 0 -17 6 -21 6 -4 8 -3 4 4 -3 5 -1 12 6 14 8 3 9
6 1 11 -6 4 -13 0 -17 -8z"/>
<path d="M3946 1955 c4 -8 11 -15 16 -15 6 0 5 6 -2 15 -7 8 -14 15 -16 15 -2
0 -1 -7 2 -15z"/>
<path d="M1046 2002 c-8 -13 17 -22 33 -12 9 5 10 10 2 14 -6 4 -11 1 -11 -6
0 -10 -2 -10 -9 1 -5 8 -11 9 -15 3z"/>
<path d="M3899 308 c-1 -7 -1 -17 0 -22 1 -4 -3 -14 -9 -21 -8 -9 -7 -14 3
-18 10 -4 13 6 14 34 1 36 -5 56 -8 27z"/>
</g>
</svg>
